<?xml version="1.0" encoding="utf-8"?>
<!-- Generator: Adobe Illustrator 23.0.5, SVG Export Plug-In . SVG Version: 6.00 Build 0)  -->
<svg version="1.1" id="Layer_1" xmlns="http://www.w3.org/2000/svg" xmlns:xlink="http://www.w3.org/1999/xlink" x="0px" y="0px"
	 viewBox="0 0 120 120" enable-background="new 0 0 120 120" xml:space="preserve">
<path id="Icon_ionic-ios-close" fill="#1A1A1A" d="M67.04,67.21l43.94,0c4.02-0.11,7.19-3.46,7.08-7.48
	c-0.1-3.87-3.21-6.98-7.08-7.08l-43.94,0l0-43.94c0.11-4.02-3.06-7.37-7.08-7.48s-7.37,3.06-7.48,7.08c0,0.13,0,0.26,0,0.4v43.94
	l-43.94,0c-4.02,0.11-7.19,3.46-7.08,7.48c0.1,3.87,3.21,6.98,7.08,7.08l43.94,0v43.94c0.11,4.02,3.46,7.19,7.48,7.08
	c3.87-0.1,6.98-3.21,7.08-7.08V67.21z"/>
</svg>
