<?xml version="1.0" encoding="utf-8"?>
<!-- Generator: Adobe Illustrator 23.0.5, SVG Export Plug-In . SVG Version: 6.00 Build 0)  -->
<svg version="1.1" id="Layer_1" xmlns="http://www.w3.org/2000/svg" xmlns:xlink="http://www.w3.org/1999/xlink" x="0px" y="0px"
	 viewBox="0 0 120 120" enable-background="new 0 0 120 120" xml:space="preserve">
<path d="M102.46,74.18c-5.9-5.62-15.18-5.6-21.06,0.03l-9.38,7.9c-15.47-6.4-27.74-18.7-34.12-34.18l7.87-9.35
	c5.63-5.89,5.65-15.16,0.03-21.06c0,0-9.11-11.84-9.26-11.99c-5.85-5.88-15.33-5.98-21.3-0.23l-5.66,4.92
	c-38,40.4,60.04,138.49,100.4,99.91l4.49-5.16c5.94-5.95,5.94-15.59,0-21.55C114.31,83.3,102.46,74.18,102.46,74.18z"/>
</svg>
