<?xml version="1.0" encoding="utf-8"?>
<!-- Generator: Adobe Illustrator 23.0.5, SVG Export Plug-In . SVG Version: 6.00 Build 0)  -->
<svg version="1.1" id="Layer_1" xmlns="http://www.w3.org/2000/svg" xmlns:xlink="http://www.w3.org/1999/xlink" x="0px" y="0px"
	 viewBox="0 0 120 120" enable-background="new 0 0 120 120" xml:space="preserve">
<g id="noun-download-1016081" transform="translate(-83.44 -47.597)">
	<path id="Path_2133" fill="#6E83EB" d="M195.55,116.67c-3.97,0.01-7.19,3.22-7.19,7.19v20.47H99.16v-20.47
		c-0.01-3.97-3.24-7.19-7.21-7.18c-3.96,0.01-7.17,3.22-7.18,7.18v27.54c0.01,3.97,3.22,7.19,7.19,7.19h103.58
		c3.97-0.01,7.19-3.22,7.19-7.19v-27.54C202.73,119.89,199.52,116.67,195.55,116.67z"/>
	<path id="Path_2134" fill="#6E83EB" d="M138.85,130.68c2.8,2.81,7.35,2.81,10.16,0.01c0,0,0.01-0.01,0.01-0.01l21.34-21.34
		c2.72-2.9,2.58-7.45-0.32-10.17c-2.77-2.6-7.08-2.6-9.85,0l-9.06,9.06v-45.4c0.01-3.97-3.21-7.2-7.18-7.21
		c-3.97-0.01-7.2,3.21-7.21,7.18c0,0.01,0,0.02,0,0.03v45.64l-9.3-9.3c-2.9-2.72-7.45-2.58-10.17,0.32c-2.6,2.77-2.6,7.08,0,9.85
		L138.85,130.68z"/>
</g>
</svg>
