<?xml version="1.0" encoding="utf-8"?>
<!-- Generator: Adobe Illustrator 23.0.5, SVG Export Plug-In . SVG Version: 6.00 Build 0)  -->
<svg version="1.1" id="Layer_1" xmlns="http://www.w3.org/2000/svg" xmlns:xlink="http://www.w3.org/1999/xlink" x="0px" y="0px"
	 viewBox="0 0 120 120" enable-background="new 0 0 120 120" xml:space="preserve">
<path id="noun-filters-3629719" fill="#333333" d="M59.74,83.06c7.47-0.01,14.13,4.72,16.59,11.78l0.29-0.05h0.68h35.08
	c3.23,0.02,5.84,2.65,5.82,5.88c-0.02,2.94-2.22,5.42-5.14,5.77h-0.68H77.2c-0.32,0-0.65-0.03-0.97-0.08
	c-3.16,9.16-13.15,14.03-22.31,10.86c-5.1-1.76-9.1-5.77-10.86-10.86l-0.29,0.05h-0.68h-35c-3.23-0.02-5.84-2.65-5.82-5.88
	c0.02-2.94,2.22-5.42,5.14-5.77h0.68h35.08c0.32,0,0.65,0.03,0.97,0.08C45.59,87.77,52.26,83.04,59.74,83.06z M59.74,94.75
	c-3.23,0-5.85,2.62-5.85,5.85c0,3.23,2.62,5.85,5.85,5.85c3.23,0,5.85-2.62,5.85-5.85c0,0,0,0,0,0
	C65.58,97.37,62.97,94.75,59.74,94.75L59.74,94.75z M18.78,42.13c7.47-0.01,14.13,4.72,16.59,11.78l0.29-0.05h0.68h75.96
	c3.23,0.13,5.74,2.85,5.62,6.07c-0.11,2.78-2.17,5.1-4.92,5.55h-0.68H36.36c-0.32,0-0.65-0.03-0.97-0.08
	c-3.18,9.15-13.18,13.99-22.33,10.8C3.91,73.02-0.93,63.03,2.25,53.88c2.45-7.04,9.09-11.77,16.54-11.78L18.78,42.13z M18.78,53.82
	c-3.23,0-5.85,2.62-5.85,5.85c0,3.23,2.62,5.85,5.85,5.85c3.23,0,5.85-2.62,5.85-5.85c0,0,0,0,0,0
	C24.63,56.44,22.01,53.82,18.78,53.82z M83.08,1.21c7.47-0.01,14.13,4.72,16.59,11.78l0.29-0.05h0.68h11.69
	c3.23,0.14,5.73,2.87,5.59,6.1c-0.12,2.78-2.18,5.08-4.92,5.52h-0.68h-11.69c-0.32,0-0.65-0.03-0.97-0.08
	C96.49,33.64,86.5,38.5,77.34,35.34c-5.1-1.76-9.1-5.77-10.86-10.86l-0.29,0.05h-0.68H7.01c-3.23-0.02-5.84-2.65-5.82-5.88
	c0.02-2.94,2.22-5.42,5.14-5.77h0.68h58.5c0.32,0,0.65,0.03,0.97,0.08C68.95,5.9,75.61,1.19,83.08,1.21z M83.08,12.9
	c-3.23,0-5.85,2.62-5.85,5.85c0,3.23,2.62,5.85,5.85,5.85c3.23,0,5.85-2.62,5.85-5.85c0,0,0,0,0,0
	C88.93,15.52,86.32,12.9,83.08,12.9z"/>
</svg>
