<?xml version="1.0" encoding="utf-8"?>
<!-- Generator: Adobe Illustrator 23.0.5, SVG Export Plug-In . SVG Version: 6.00 Build 0)  -->
<svg version="1.1" id="Layer_1" xmlns="http://www.w3.org/2000/svg" xmlns:xlink="http://www.w3.org/1999/xlink" x="0px" y="0px"
	 viewBox="0 0 120 120" enable-background="new 0 0 120 120" xml:space="preserve">
<path id="noun-home-3806586" d="M106.3,34.2L68.8,5l0,0C63.8,1,56.7,1,51.7,5L14.2,34.2l0,0C6.4,40.3,1.8,49.6,1.7,59.6V111
	c0,3.2,2.6,5.8,5.9,5.8h105.3c3.2,0,5.8-2.6,5.8-5.8V59.6C118.7,49.6,114.1,40.3,106.3,34.2L106.3,34.2z M72.3,105.3H48.2V77.1
	c0-4.1,3.4-7.5,7.5-7.5h9.1c4.1,0,7.5,3.4,7.5,7.5L72.3,105.3z M107.1,105.3H84V77.1c0-10.6-8.6-19.2-19.2-19.2h-9.1
	c-10.6,0-19.2,8.6-19.2,19.2v28.1h-23V59.6c0-6.3,3-12.2,8-16.1l37.4-29.2l0,0c0.8-0.6,1.9-0.6,2.8,0L99,43.5l0,0
	c5,3.8,8,9.8,8,16.1L107.1,105.3z"/>
</svg>
