<svg xmlns="http://www.w3.org/2000/svg" fill-rule="evenodd" stroke-linejoin="round" stroke-miterlimit="2" clip-rule="evenodd" viewBox="0 0 32 33"><g transform="translate(0 .98)"><rect width="32" height="32" fill="none"/><path d="M6.698,189.98L5,189.98C4.204,189.98 3.441,190.296 2.879,190.859C2.316,191.422 2,192.185 2,192.98C2,195.851 2,201.109 2,203.98C2,205.637 3.343,206.98 5,206.98C9.843,206.98 22.157,206.98 27,206.98C28.657,206.98 30,205.637 30,203.98C30,201.109 30,195.851 30,192.98C30,191.323 28.657,189.98 27,189.98C23.645,189.98 17.245,189.98 17.245,189.98C16.693,189.98 16.245,190.428 16.245,190.98C16.245,191.532 16.693,191.98 17.245,191.98C17.245,191.98 23.645,191.98 27,191.98C27.552,191.98 28,192.428 28,192.98C28,195.851 28,201.109 28,203.98C28,204.533 27.552,204.98 27,204.98C22.157,204.98 9.843,204.98 5,204.98C4.448,204.98 4,204.533 4,203.98C4,201.109 4,195.851 4,192.98C4,192.715 4.105,192.461 4.293,192.273C4.48,192.086 4.735,191.98 5,191.98L6.698,191.98C7.25,191.98 7.698,191.532 7.698,190.98C7.698,190.428 7.25,189.98 6.698,189.98ZM17.252,197.113C16.88,194.734 14.831,192.98 12.423,192.98C12.142,192.98 11.858,192.98 11.577,192.98C9.169,192.98 7.12,194.734 6.748,197.113C6.551,198.376 6.338,199.738 6.192,200.671C6.102,201.249 6.269,201.837 6.649,202.281C7.029,202.725 7.584,202.98 8.168,202.98C10.093,202.98 13.907,202.98 15.832,202.98C16.416,202.98 16.971,202.725 17.351,202.281C17.731,201.837 17.898,201.249 17.808,200.672L17.252,197.113ZM20,201.98L25,201.98C25.552,201.98 26,201.532 26,200.98C26,200.428 25.552,199.98 25,199.98L20,199.98C19.448,199.98 19,200.428 19,200.98C19,201.532 19.448,201.98 20,201.98ZM20,197.98L24,197.98C24.552,197.98 25,197.532 25,196.98C25,196.428 24.552,195.98 24,195.98L20,195.98C19.448,195.98 19,196.428 19,196.98C19,197.532 19.448,197.98 20,197.98ZM12,184.98C10.068,184.98 8.5,186.549 8.5,188.48C8.5,190.412 10.068,191.98 12,191.98C13.932,191.98 15.5,190.412 15.5,188.48C15.5,186.549 13.932,184.98 12,184.98Z" transform="translate(0 -179.98)"/></g></svg>