<?xml version="1.0" encoding="utf-8"?>
<!-- Generator: Adobe Illustrator 23.0.5, SVG Export Plug-In . SVG Version: 6.00 Build 0)  -->
<svg version="1.1" id="Layer_1" xmlns="http://www.w3.org/2000/svg" xmlns:xlink="http://www.w3.org/1999/xlink" x="0px" y="0px"
	 viewBox="0 0 120 120" enable-background="new 0 0 120 120" xml:space="preserve">
<path id="Union_1" fill="#333333" d="M24.78,117.45c-1.67-1.59-1.73-4.23-0.14-5.89c0.05-0.05,0.09-0.1,0.14-0.14l6.89-6.89
	c1.67-1.66,4.36-1.66,6.03,0c1.67,1.58,1.73,4.22,0.15,5.89c-0.05,0.05-0.1,0.1-0.15,0.15l-6.89,6.89c-0.79,0.82-1.87,1.28-3.01,1.3
	C26.66,118.74,25.57,118.27,24.78,117.45z M72.92,112.28c-2.49-0.49-4.59-2.14-5.66-4.43l-5.42-11.7l-5.79,4.18
	c-4.84,3.52-11.52,3-15.75-1.23L21.33,80.15c-4.24-4.23-4.76-10.92-1.23-15.76l4.19-5.79l-11.7-5.29c-2.29-1.08-3.94-3.18-4.44-5.67
	c-0.44-2.46,0.34-4.98,2.1-6.76l10.34-10.35c6.31-6.21,15.34-8.8,23.99-6.89c2.3,0.32,4.62-0.35,6.4-1.84
	C67.34,7.24,89,0.1,110.81,2.07c3.73,0.47,6.67,3.41,7.14,7.14c2.17,21.84-4.83,43.6-19.32,60.08c-1.54,1.8-2.22,4.19-1.85,6.53
	c1.82,8.61-0.77,17.56-6.89,23.89l-10.22,10.34c-1.39,1.49-3.34,2.34-5.38,2.35C73.83,112.4,73.37,112.37,72.92,112.28z
	 M64.54,85.57c1.23,0.35,2.26,1.2,2.84,2.35l7.14,15.38l9.47-9.73c4.16-4.35,5.83-10.51,4.44-16.37c-0.77-4.8,0.58-9.69,3.69-13.42
	c12.83-14.7,19.14-33.99,17.48-53.43c-19.38-1.39-38.51,5.09-53.06,17.97c-3.7,3.17-8.62,4.52-13.42,3.69
	c-5.92-1.4-12.15,0.32-16.52,4.55l-9.48,9.48l15.4,7.01c0.46,0.21,0.87,0.51,1.23,0.86c0.49,0.58,0.86,1.25,1.11,1.97
	c0.36,1.22,0.14,2.54-0.61,3.57l-7.27,10.1C25.9,71,26.06,73,27.34,74.25l18.96,18.84c1.25,1.28,3.25,1.43,4.68,0.37l9.97-7.26
	c0.7-0.52,1.55-0.79,2.42-0.79c0.4,0,0.8,0.05,1.19,0.17H64.54z M10.13,110.32c-1.67-1.59-1.73-4.23-0.13-5.9
	c0.04-0.05,0.09-0.09,0.13-0.13L20.72,93.7c1.58-1.66,4.21-1.73,5.88-0.15c0.05,0.05,0.1,0.1,0.15,0.15
	c1.67,1.58,1.73,4.22,0.15,5.89c-0.05,0.05-0.1,0.1-0.15,0.15l-10.58,10.58c-0.79,0.82-1.88,1.28-3.02,1.3
	C12.01,111.6,10.92,111.14,10.13,110.32L10.13,110.32z M2.87,95.66c-1.67-1.58-1.73-4.22-0.15-5.89c0.05-0.05,0.1-0.1,0.15-0.15
	l6.89-6.89c1.59-1.67,4.22-1.73,5.88-0.15c0.05,0.05,0.1,0.1,0.15,0.15c1.67,1.58,1.73,4.22,0.15,5.89c-0.05,0.05-0.1,0.1-0.15,0.15
	L8.9,95.66c-0.79,0.82-1.87,1.28-3.01,1.3C4.75,96.95,3.65,96.48,2.87,95.66L2.87,95.66z M63.56,56.75c-6.14-6.2-6.14-16.19,0-22.39
	c2.97-2.97,6.99-4.66,11.19-4.68c4.2,0.02,8.22,1.71,11.19,4.68c6.14,6.2,6.14,16.19,0,22.39c-2.97,2.97-7,4.63-11.19,4.62
	c-4.2,0.02-8.23-1.64-11.2-4.6L63.56,56.75z M69.59,40.37c-2.83,2.87-2.83,7.48,0,10.35c2.87,2.83,7.47,2.83,10.34,0
	c2.83-2.91,2.83-7.55,0-10.47c-1.38-1.36-3.24-2.11-5.17-2.09c-1.94,0.09-3.78,0.88-5.18,2.23L69.59,40.37z"/>
</svg>
