<?xml version="1.0" encoding="utf-8"?>
<!-- Generator: Adobe Illustrator 23.0.5, SVG Export Plug-In . SVG Version: 6.00 Build 0)  -->
<svg version="1.1" id="Layer_1" xmlns="http://www.w3.org/2000/svg" xmlns:xlink="http://www.w3.org/1999/xlink" x="0px" y="0px"
	 viewBox="0 0 120 120" enable-background="new 0 0 120 120" xml:space="preserve">
<path id="Path_2039" fill="#1A1A1A" d="M60,1.83C35.14,1.46,14.66,21.26,14.2,46.12c0.04,9.59,3.26,18.9,9.16,26.46l34.61,45.3
	c0.89,1.03,2.41,1.25,3.56,0.51l0.51-0.51l34.61-45.3c5.9-7.56,9.12-16.87,9.16-26.46C105.33,21.27,84.85,1.47,60,1.84L60,1.83z
	 M56.44,63.41c-9.62-1.9-15.88-11.25-13.98-20.87c1.9-9.62,11.25-15.88,20.87-13.98c7.06,1.4,12.58,6.92,13.98,13.98
	c1.8,9.61-4.42,18.89-13.99,20.87C61.05,63.92,58.7,63.92,56.44,63.41z"/>
</svg>
