<?xml version="1.0" encoding="utf-8"?>
<!-- Generator: Adobe Illustrator 23.0.5, SVG Export Plug-In . SVG Version: 6.00 Build 0)  -->
<svg version="1.1" id="Layer_1" xmlns="http://www.w3.org/2000/svg" xmlns:xlink="http://www.w3.org/1999/xlink" x="0px" y="0px"
	 viewBox="0 0 120 120" enable-background="new 0 0 120 120" xml:space="preserve">
<g id="Group_2087" transform="translate(-862.874 -1417)">
	<path id="Path_1945" fill="#FFFFFF" d="M873.28,1425.9c-4.85,0-8.78,3.93-8.78,8.78s3.93,8.78,8.78,8.78l0,0h99.45
		c4.85,0,8.78-3.93,8.78-8.78s-3.93-8.78-8.78-8.78H873.28z M873.28,1468.34c-4.85,0-8.78,3.93-8.78,8.78s3.93,8.78,8.78,8.78l0,0
		h99.45c4.85,0,8.78-3.93,8.78-8.78s-3.93-8.78-8.78-8.78H873.28z M873.28,1510.78c-4.85,0-8.78,3.93-8.78,8.78s3.93,8.78,8.78,8.78
		l0,0h99.45c4.85,0,8.78-3.93,8.78-8.78s-3.93-8.78-8.78-8.78H873.28z"/>
</g>
</svg>
