<?xml version="1.0" encoding="utf-8"?>
<!-- Generator: Adobe Illustrator 23.0.5, SVG Export Plug-In . SVG Version: 6.00 Build 0)  -->
<svg version="1.1" id="Layer_1" xmlns="http://www.w3.org/2000/svg" xmlns:xlink="http://www.w3.org/1999/xlink" x="0px" y="0px"
	 viewBox="0 0 120 120" enable-background="new 0 0 120 120" xml:space="preserve">
<path id="Path_2076" fill="#333333" d="M80.11,6.26H40.18C18.86,6.29,1.59,23.58,1.58,44.9v10.56
	C1.55,72.04,12.13,86.78,27.85,92.06l1.54,0.52l-0.81,1.42c-2.1,3.62-4.95,9.3-8.7,17.37c-0.45,0.98-0.25,2.13,0.51,2.89
	c0.77,0.73,1.9,0.94,2.87,0.53L68.49,94.1H80.1c21.31-0.03,38.58-17.31,38.6-38.63V44.9C118.69,23.58,101.42,6.29,80.11,6.26
	L80.11,6.26z M29.97,58.34c-4.02,0-7.27-3.26-7.27-7.27c0-4.02,3.26-7.27,7.27-7.27c4.01,0,7.27,3.25,7.27,7.26
	C37.24,55.08,33.99,58.34,29.97,58.34z M60.14,58.34c-4.02,0-7.27-3.26-7.27-7.27c0-4.02,3.26-7.27,7.27-7.27
	c4.01,0,7.27,3.25,7.27,7.26C67.41,55.08,64.16,58.34,60.14,58.34z M90.31,58.34c-4.02,0-7.27-3.26-7.27-7.27
	c0-4.02,3.26-7.27,7.27-7.27c4.01,0,7.27,3.25,7.27,7.26C97.58,55.08,94.33,58.34,90.31,58.34z"/>
</svg>
