<?xml version="1.0" encoding="utf-8"?>
<!-- Generator: Adobe Illustrator 23.0.5, SVG Export Plug-In . SVG Version: 6.00 Build 0)  -->
<svg version="1.1" id="Layer_1" xmlns="http://www.w3.org/2000/svg" xmlns:xlink="http://www.w3.org/1999/xlink" x="0px" y="0px"
	 viewBox="0 0 120 120" enable-background="new 0 0 120 120" xml:space="preserve">
<path id="Path_1893" fill="#1A1A1A" d="M41.12,98.79h8.42c-0.01,5.83,4.71,10.57,10.54,10.58c5.83,0.01,10.57-4.71,10.58-10.54
	c0-0.01,0-0.02,0-0.04h8.42c0.19,10.5-8.17,19.16-18.67,19.34c-10.5,0.19-19.16-8.17-19.34-18.67c0-0.23,0-0.45,0-0.68H41.12z
	 M115.03,84v2.12c0,4.65-3.77,8.42-8.42,8.42H13.64c-4.65,0-8.42-3.77-8.42-8.42V84c0.01-7.35,5.4-13.57,12.67-14.63V43.88
	C17.61,20.56,36.3,1.42,59.62,1.14c23.33-0.28,42.46,18.41,42.74,41.73c0,0.34,0,0.67,0,1.01v25.49
	C109.64,70.42,115.03,76.66,115.03,84L115.03,84z M106.61,84c0-3.5-2.83-6.33-6.33-6.33c-0.01,0-0.02,0-0.02,0
	c-3.49-0.01-6.31-2.83-6.32-6.32V43.88C93.92,25.21,78.78,10.1,60.11,10.12c-18.64,0.02-33.74,15.12-33.76,33.76v27.47
	c0,3.49-2.83,6.32-6.32,6.32c-3.5,0-6.34,2.83-6.35,6.33v2.12h92.92L106.61,84L106.61,84z"/>
</svg>
