<?xml version="1.0" encoding="utf-8"?>
<!-- Generator: Adobe Illustrator 23.0.5, SVG Export Plug-In . SVG Version: 6.00 Build 0)  -->
<svg version="1.1" id="Layer_1" xmlns="http://www.w3.org/2000/svg" xmlns:xlink="http://www.w3.org/1999/xlink" x="0px" y="0px"
	 viewBox="0 0 120 120" enable-background="new 0 0 120 120" xml:space="preserve">
<path id="Path_2058" fill="#1A1A1A" d="M57,2.02C26.34,2.04,1.5,26.91,1.52,57.57c0.02,30.66,24.89,55.5,55.55,55.48
	c11.71-0.01,23.11-3.72,32.58-10.6l13.89,13.72c3.35,3.46,8.86,3.55,12.32,0.2c3.46-3.35,3.55-8.86,0.2-12.32
	c-0.07-0.07-0.14-0.14-0.2-0.2l-13.89-13.72c18.02-24.77,12.55-59.47-12.22-77.49C80.24,5.71,68.77,1.99,57,2.02z M57,95.63
	c-21.06,0.03-38.16-17.03-38.19-38.09s17.03-38.16,38.09-38.19c21.06-0.03,38.16,17.03,38.19,38.09
	c0.01,10.13-4.01,19.85-11.17,27.01C76.78,91.6,67.1,95.6,57,95.6V95.63z"/>
</svg>
