<?xml version="1.0" encoding="utf-8"?>
<!-- Generator: Adobe Illustrator 23.0.5, SVG Export Plug-In . SVG Version: 6.00 Build 0)  -->
<svg version="1.1" id="Layer_1" xmlns="http://www.w3.org/2000/svg" xmlns:xlink="http://www.w3.org/1999/xlink" x="0px" y="0px"
	 viewBox="0 0 120 120" enable-background="new 0 0 120 120" xml:space="preserve">
<g id="noun-article-790637" transform="translate(-70)">
	<path id="Path_2071" fill="#57585D" d="M94.8,4.3V98c-0.2,3.2-3,5.7-6.2,5.5c-3-0.2-5.3-2.5-5.5-5.5V53.9H71.4V98
		c0.1,9.3,7.7,16.7,17,16.6c0.2,0,0.4,0,0.6,0h81.9c9.2,0.4,17.1-6.7,17.5-16c0-0.2,0-0.4,0-0.6V4.3H94.8z M176.7,98
		c0.1,3-2.3,5.5-5.2,5.5c-0.2,0-0.4,0-0.6,0h-65.5c0.7-1.8,1.1-3.6,1.2-5.5V15.3h70.2V98z"/>
	<path id="Path_2072" fill="#57585D" d="M116.5,36.9h49.4v12.4h-49.4V36.9z"/>
	<path id="Path_2073" fill="#57585D" d="M116.5,58.7h49.4v12.4h-49.4V58.7z"/>
	<path id="Path_2074" fill="#57585D" d="M116.5,80.5h49.4v12.4h-49.4V80.5z"/>
</g>
</svg>
