<?xml version="1.0" encoding="utf-8"?>
<!-- Generator: Adobe Illustrator 23.0.5, SVG Export Plug-In . SVG Version: 6.00 Build 0)  -->
<svg version="1.1" id="Layer_1" xmlns="http://www.w3.org/2000/svg" xmlns:xlink="http://www.w3.org/1999/xlink" x="0px" y="0px"
	 viewBox="0 0 120 120" enable-background="new 0 0 120 120" xml:space="preserve">
<g id="Group_2132_1_" transform="translate(-215.509 -330.658)">
	
		<linearGradient id="Path_2000_1_" gradientUnits="userSpaceOnUse" x1="237.0373" y1="425.6919" x2="235.133" y2="430.9288" gradientTransform="matrix(15.127 0 0 -15.9742 -3304.6226 7210.5679)">
		<stop  offset="0" style="stop-color:#6ABB75"/>
		<stop  offset="1" style="stop-color:#D8ED6F"/>
	</linearGradient>
	<path id="Path_2000" fill="url(#Path_2000_1_)" d="M315.73,345.1H305.7v-7.87l0,0c-0.11-2.9-2.55-5.16-5.44-5.05
		c-2.75,0.1-4.95,2.31-5.05,5.05v7.87h-38.26v-7.87l0,0c-0.11-2.9-2.55-5.16-5.44-5.05c-2.75,0.1-4.95,2.31-5.05,5.05v7.87h-10.03
		c-8.7,0-15.75,7.05-15.75,15.75c0,0,0,0,0,0v69.95c0,10.15,8.22,18.37,18.37,18.37l0,0h74.06c10.15,0,18.37-8.22,18.37-18.37
		v-69.95C331.47,352.15,324.42,345.1,315.73,345.1L315.73,345.1L315.73,345.1z M313.11,438.67h-74.06
		c-4.34-0.01-7.85-3.53-7.85-7.87v-52H321v52c0,4.35-3.53,7.87-7.87,7.87L313.11,438.67z M320.98,368.24h-89.79v-7.4
		c0-2.9,2.35-5.25,5.25-5.25l0,0h10.03v2.86l0,0c-0.11,2.9,2.15,5.34,5.05,5.44c2.9,0.11,5.34-2.15,5.44-5.05c0-0.13,0-0.26,0-0.39
		v-2.86h38.26v2.86c-0.11,2.9,2.15,5.34,5.05,5.44c2.9,0.11,5.34-2.15,5.44-5.05c0-0.13,0-0.26,0-0.39v-2.86h10.03
		c2.9,0,5.25,2.35,5.25,5.25c0,0,0,0,0,0v7.4H320.98z"/>
	
		<linearGradient id="Path_2001_1_" gradientUnits="userSpaceOnUse" x1="347.3182" y1="264.4102" x2="345.4139" y2="269.647" gradientTransform="matrix(2.114 0 0 -2.114 -484.3948 958.2551)">
		<stop  offset="0" style="stop-color:#6ABB75"/>
		<stop  offset="1" style="stop-color:#D8ED6F"/>
	</linearGradient>
	<path id="Path_2001" fill="url(#Path_2001_1_)" d="M248.93,389.01c-4.28-0.01-7.75,3.45-7.76,7.73c-0.01,4.28,3.45,7.75,7.73,7.76
		c4.28,0.01,7.75-3.45,7.76-7.73c0-2.06-0.81-4.04-2.27-5.49C252.94,389.82,250.98,389.01,248.93,389.01z"/>
	
		<linearGradient id="Path_2002_1_" gradientUnits="userSpaceOnUse" x1="358.4052" y1="264.4102" x2="356.5009" y2="269.6471" gradientTransform="matrix(2.114 0 0 -2.114 -480.6888 958.2551)">
		<stop  offset="0" style="stop-color:#6ABB75"/>
		<stop  offset="1" style="stop-color:#D8ED6F"/>
	</linearGradient>
	<path id="Path_2002" fill="url(#Path_2002_1_)" d="M276.08,389.01c-4.28-0.01-7.75,3.45-7.76,7.73c-0.01,4.28,3.45,7.75,7.73,7.76
		c4.28,0.01,7.75-3.45,7.76-7.73c0-2.06-0.81-4.03-2.26-5.48C280.09,389.83,278.13,389.01,276.08,389.01z"/>
	
		<linearGradient id="Path_2003_1_" gradientUnits="userSpaceOnUse" x1="369.498" y1="264.4102" x2="367.5937" y2="269.6471" gradientTransform="matrix(2.114 0 0 -2.114 -476.9808 958.2551)">
		<stop  offset="0" style="stop-color:#6ABB75"/>
		<stop  offset="1" style="stop-color:#D8ED6F"/>
	</linearGradient>
	<path id="Path_2003" fill="url(#Path_2003_1_)" d="M303.23,389.01c-4.28-0.01-7.75,3.45-7.76,7.73c-0.01,4.28,3.45,7.75,7.73,7.76
		c4.28,0.01,7.75-3.45,7.76-7.73c0-2.06-0.81-4.04-2.27-5.49C307.24,389.82,305.28,389.01,303.23,389.01z"/>
	
		<linearGradient id="Path_2004_1_" gradientUnits="userSpaceOnUse" x1="347.3182" y1="254.9776" x2="345.4139" y2="260.2145" gradientTransform="matrix(2.114 0 0 -2.114 -484.3948 961.4081)">
		<stop  offset="0" style="stop-color:#6ABB75"/>
		<stop  offset="1" style="stop-color:#D8ED6F"/>
	</linearGradient>
	<path id="Path_2004" fill="url(#Path_2004_1_)" d="M248.93,412.1c-4.28-0.01-7.75,3.45-7.76,7.73c-0.01,4.28,3.45,7.75,7.73,7.76
		c4.28,0.01,7.75-3.45,7.76-7.73c0-2.06-0.81-4.04-2.27-5.49C252.94,412.92,250.98,412.1,248.93,412.1z"/>
	
		<linearGradient id="Path_2005_1_" gradientUnits="userSpaceOnUse" x1="358.4082" y1="254.9804" x2="356.5039" y2="260.2173" gradientTransform="matrix(2.114 0 0 -2.114 -480.6878 961.4219)">
		<stop  offset="0" style="stop-color:#6ABB75"/>
		<stop  offset="1" style="stop-color:#D8ED6F"/>
	</linearGradient>
	<path id="Path_2005" fill="url(#Path_2005_1_)" d="M276.08,412.1c-4.28,0-7.74,3.46-7.75,7.74c0,4.28,3.46,7.74,7.74,7.75
		c4.28,0,7.74-3.46,7.75-7.74c0-2.06-0.82-4.03-2.27-5.48C280.09,412.92,278.13,412.1,276.08,412.1z"/>
	
		<linearGradient id="Path_2006_1_" gradientUnits="userSpaceOnUse" x1="369.498" y1="254.9776" x2="367.5937" y2="260.2145" gradientTransform="matrix(2.114 0 0 -2.114 -476.9808 961.4081)">
		<stop  offset="0" style="stop-color:#6ABB75"/>
		<stop  offset="1" style="stop-color:#D8ED6F"/>
	</linearGradient>
	<path id="Path_2006" fill="url(#Path_2006_1_)" d="M303.23,412.1c-4.28-0.01-7.75,3.45-7.76,7.73c-0.01,4.28,3.45,7.75,7.73,7.76
		c4.28,0.01,7.75-3.45,7.76-7.73c0-2.06-0.81-4.04-2.27-5.49C307.24,412.92,305.28,412.1,303.23,412.1z"/>
</g>
</svg>
