<?xml version="1.0" encoding="utf-8"?>
<!-- Generator: Adobe Illustrator 23.0.5, SVG Export Plug-In . SVG Version: 6.00 Build 0)  -->
<svg version="1.1" id="Layer_1" xmlns="http://www.w3.org/2000/svg" xmlns:xlink="http://www.w3.org/1999/xlink" x="0px" y="0px"
	 viewBox="0 0 120 120" enable-background="new 0 0 120 120" xml:space="preserve">
<g id="noun-article-790637" transform="translate(-70)">
	
		<linearGradient id="Path_2071_1_" gradientUnits="userSpaceOnUse" x1="85.2356" y1="101.2409" x2="84.3199" y2="104.9682" gradientTransform="matrix(21.722 0 0 -20.4815 -1717.262 2143.2615)">
		<stop  offset="0" style="stop-color:#6ABB75"/>
		<stop  offset="1" style="stop-color:#D8ED6F"/>
	</linearGradient>
	<path id="Path_2071" fill="url(#Path_2071_1_)" d="M94.76,5.08v93.75c-0.2,3.23-2.97,5.69-6.2,5.49c-2.96-0.18-5.31-2.54-5.49-5.49
		V54.72h-11.7v44.12c0.11,9.26,7.7,16.67,16.96,16.56c0.2,0,0.39-0.01,0.59-0.02h81.9c9.25,0.43,17.1-6.71,17.53-15.96
		c0.01-0.2,0.02-0.39,0.02-0.59V5.08H94.76z M176.66,98.83c0.08,2.97-2.26,5.45-5.23,5.53c-0.21,0.01-0.41,0-0.61-0.02h-65.52
		c0.72-1.75,1.12-3.62,1.17-5.52V16.11h70.2V98.83z"/>
	
		<linearGradient id="Path_2072_1_" gradientUnits="userSpaceOnUse" x1="104.647" y1="-41.9428" x2="103.7314" y2="-38.2155" gradientTransform="matrix(9.179 0 0 -2.295 -818.3459 -51.2442)">
		<stop  offset="0" style="stop-color:#6ABB75"/>
		<stop  offset="1" style="stop-color:#D8ED6F"/>
	</linearGradient>
	<path id="Path_2072" fill="url(#Path_2072_1_)" d="M116.4,37.73h49.44v12.36H116.4V37.73z"/>
	
		<linearGradient id="Path_2073_1_" gradientUnits="userSpaceOnUse" x1="104.647" y1="-49.663" x2="103.7314" y2="-45.9357" gradientTransform="matrix(9.179 0 0 -2.295 -818.3459 -47.2024)">
		<stop  offset="0" style="stop-color:#6ABB75"/>
		<stop  offset="1" style="stop-color:#D8ED6F"/>
	</linearGradient>
	<path id="Path_2073" fill="url(#Path_2073_1_)" d="M116.4,59.49h49.44v12.36H116.4V59.49z"/>
	
		<linearGradient id="Path_2074_1_" gradientUnits="userSpaceOnUse" x1="104.647" y1="-57.3861" x2="103.7314" y2="-53.6589" gradientTransform="matrix(9.179 0 0 -2.295 -818.3459 -43.1614)">
		<stop  offset="0" style="stop-color:#6ABB75"/>
		<stop  offset="1" style="stop-color:#D8ED6F"/>
	</linearGradient>
	<path id="Path_2074" fill="url(#Path_2074_1_)" d="M116.4,81.25h49.44v12.36H116.4V81.25z"/>
</g>
</svg>
