<?xml version="1.0" encoding="utf-8"?>
<!-- Generator: Adobe Illustrator 23.0.5, SVG Export Plug-In . SVG Version: 6.00 Build 0)  -->
<svg version="1.1" id="Layer_1" xmlns="http://www.w3.org/2000/svg" xmlns:xlink="http://www.w3.org/1999/xlink" x="0px" y="0px"
	 viewBox="0 0 120 120" enable-background="new 0 0 120 120" xml:space="preserve">
<linearGradient id="Path_2120_1_" gradientUnits="userSpaceOnUse" x1="23.3874" y1="97.8885" x2="20.5477" y2="101.0823" gradientTransform="matrix(14.0043 0 0 -17.5908 -259.0043 1793.4863)">
	<stop  offset="0" style="stop-color:#FF6969"/>
	<stop  offset="1" style="stop-color:#FFD27E"/>
</linearGradient>
<path id="Path_2120" fill="url(#Path_2120_1_)" d="M88.7,33.42l6.27-6.27c2.52-2.52,6.62-2.52,9.14,0c2.52,2.52,2.52,6.62,0,9.14
	l-6.27,6.27C95.13,39.2,92.06,36.14,88.7,33.42z M48.34,14.23h6.68v9.27c1.34-0.13,2.61-0.13,3.92-0.13s2.61,0.13,3.92,0.13V14.1
	h6.68c3.53,0.07,6.46-2.74,6.53-6.27c0.07-3.53-2.74-6.46-6.27-6.53c-0.13,0-0.26,0-0.39,0H48.38c-3.53,0-6.4,2.87-6.4,6.4
	c0,3.56,2.84,6.46,6.4,6.53H48.34z M58.92,36.16c-19.98,0-36.17,16.2-36.17,36.17s16.2,36.17,36.17,36.17s36.17-16.2,36.17-36.17
	S78.9,36.16,58.92,36.16L58.92,36.16 M58.92,25.85c25.68,0,46.49,20.81,46.49,46.49c0,25.68-20.81,46.49-46.49,46.49
	c-25.68,0-46.49-20.81-46.49-46.49c0,0,0,0,0,0C12.49,46.69,33.27,25.91,58.92,25.85z M69.37,72.34c-0.01-4.57-2.96-8.62-7.32-10.02
	V46.48c-0.08-1.8-1.61-3.2-3.41-3.12c-1.69,0.08-3.04,1.43-3.12,3.12v15.8c-5.55,1.8-8.6,7.76-6.8,13.31
	c1.04,3.23,3.57,5.75,6.8,6.8v1.96c0.08,1.8,1.61,3.2,3.41,3.12c1.69-0.08,3.04-1.43,3.12-3.12v-1.96
	C66.42,80.99,69.38,76.92,69.37,72.34z"/>
</svg>
