<?xml version="1.0" encoding="utf-8"?>
<!-- Generator: Adobe Illustrator 23.0.5, SVG Export Plug-In . SVG Version: 6.00 Build 0)  -->
<svg version="1.1" id="Layer_1" xmlns="http://www.w3.org/2000/svg" xmlns:xlink="http://www.w3.org/1999/xlink" x="0px" y="0px"
	 viewBox="0 0 120 120" enable-background="new 0 0 120 120" xml:space="preserve">
<path id="Union_2" fill="#1A1A1A" d="M43.22,116.9l-11.23-11.23c-1.42-1.37-1.54-3.61-0.28-5.12c3.15-3.8,2.87-9.37-0.63-12.85
	c-3.51-3.38-8.99-3.61-12.76-0.52c-1.54,1.18-3.71,1.07-5.13-0.26l-9.52-9.52c-2.48-2.43-2.52-6.42-0.08-8.9
	c0.03-0.03,0.06-0.06,0.08-0.08L68.37,3.67c2.44-2.48,6.42-2.52,8.91-0.08c0.03,0.03,0.05,0.05,0.08,0.08l10.51,10.52
	c1.3,1.26,1.48,3.28,0.45,4.76c-2.53,3.81-2.05,8.88,1.17,12.13c3.24,3.25,8.33,3.74,12.13,1.17c1.49-1.04,3.5-0.84,4.77,0.45
	l10.51,10.51c2.48,2.44,2.52,6.43,0.08,8.91c-0.03,0.03-0.05,0.05-0.08,0.08L52.2,116.9c-1.19,1.2-2.8,1.88-4.5,1.89
	C46.02,118.78,44.4,118.1,43.22,116.9z M36.48,82.3c5.26,5.35,6.49,13.46,3.05,20.13l8.18,8.18l40.44-40.44L50.4,32.43L9.97,72.87
	l6.48,6.47c2.46-1.29,5.21-1.97,7.99-1.96C28.94,77.36,33.27,79.13,36.48,82.3L36.48,82.3z M55.79,27.04l37.74,37.74l17.08-17.08
	l-7.64-7.64c-6.43,2.79-13.92,1.37-18.87-3.6c-4.93-4.97-6.35-12.44-3.59-18.87l-7.64-7.64L55.79,27.04z M42.99,75.99
	c-5.98-6.03-5.98-15.75,0-21.77c2.89-2.89,6.8-4.52,10.89-4.55c4.09,0.02,8,1.66,10.89,4.55c5.98,6.03,5.98,15.75,0,21.77
	c-2.89,2.88-6.81,4.5-10.89,4.49C49.8,80.49,45.88,78.87,42.99,75.99z M48.86,60.06c-2.75,2.79-2.75,7.27,0,10.06
	c2.78,2.75,7.27,2.75,10.05,0c2.76-2.83,2.76-7.35,0-10.18c-1.33-1.32-3.14-2.06-5.02-2.04C52.01,57.99,50.22,58.75,48.86,60.06z"/>
</svg>
