<?xml version="1.0" encoding="utf-8"?>
<!-- Generator: Adobe Illustrator 23.0.5, SVG Export Plug-In . SVG Version: 6.00 Build 0)  -->
<svg version="1.1" id="Layer_1" xmlns="http://www.w3.org/2000/svg" xmlns:xlink="http://www.w3.org/1999/xlink" x="0px" y="0px"
	 viewBox="0 0 120 120" enable-background="new 0 0 120 120" xml:space="preserve">
<g id="Icon_feather-user" transform="translate(-6 -4.5)">
	
		<linearGradient id="Path_2075_1_" gradientUnits="userSpaceOnUse" x1="25.029" y1="57.4989" x2="24.0849" y2="63.9228" gradientTransform="matrix(16.99 0 0 -6.371 -357.93 481.8026)">
		<stop  offset="0" style="stop-color:#72BF74"/>
		<stop  offset="1" style="stop-color:#C7E570"/>
	</linearGradient>
	<path id="Path_2075" fill="url(#Path_2075_1_)" d="M119.34,123.5v-13.11c0-14.47-11.73-26.21-26.21-26.21c0,0,0,0-0.01,0H40.7
		c-14.47,0-26.21,11.73-26.21,26.21v13.11"/>
	
		<linearGradient id="Path_2076_1_" gradientUnits="userSpaceOnUse" x1="42.7784" y1="81.0597" x2="41.8343" y2="87.4836" gradientTransform="matrix(8.494 0 0 -8.494 -294.21 735.4972)">
		<stop  offset="0" style="stop-color:#72BF74"/>
		<stop  offset="1" style="stop-color:#C7E570"/>
	</linearGradient>
	<path id="Path_2076" fill="url(#Path_2076_1_)" d="M93.12,31.76c0,14.47-11.73,26.21-26.21,26.21c-14.47,0-26.21-11.73-26.21-26.21
		c0-14.47,11.73-26.2,26.2-26.21C81.38,5.55,93.12,17.28,93.12,31.76C93.12,31.76,93.12,31.76,93.12,31.76z"/>
</g>
</svg>
