<?xml version="1.0" encoding="utf-8"?>
<!-- Generator: Adobe Illustrator 23.0.5, SVG Export Plug-In . SVG Version: 6.00 Build 0)  -->
<svg version="1.1" id="Layer_1" xmlns="http://www.w3.org/2000/svg" xmlns:xlink="http://www.w3.org/1999/xlink" x="0px" y="0px"
	 viewBox="0 0 120 120" enable-background="new 0 0 120 120" xml:space="preserve">
<g id="Group_2402" transform="translate(-10611.144 -65.809)">
	<linearGradient id="Path_2156_1_" gradientUnits="userSpaceOnUse" x1="10613.1436" y1="132.4527" x2="10729.3857" y2="132.4527">
		<stop  offset="0" style="stop-color:#D48BE4"/>
		<stop  offset="1" style="stop-color:#B775EA"/>
	</linearGradient>
	<path id="Path_2156" opacity="0.1" fill="url(#Path_2156_1_)" d="M10637.34,85.01c20.23-6.68,23.68-5.13,56.25,36.35
		c31.4,30.77,34.95,16.4,35.8,31.81c-1.93,24.74-30.1,28.88-56.93,29.71c-44.63-0.84-46.95-18.57-55.93-39.85
		S10617.11,91.7,10637.34,85.01z"/>
	<linearGradient id="Path_2157_1_" gradientUnits="userSpaceOnUse" x1="10613.3184" y1="135.9147" x2="10725.415" y2="135.9147">
		<stop  offset="0" style="stop-color:#D48BE4"/>
		<stop  offset="1" style="stop-color:#B775EA"/>
	</linearGradient>
	<path id="Path_2157" opacity="0.1" fill="url(#Path_2157_1_)" d="M10722.52,148.31c-13.08,20.65-28.97,21.88-54.3,27.3
		c-26.52,8.99-37.72,11.5-50.04,2.62c-7.34-6.45-6.06-19.78,1.78-38.9c18.9-43.03,35.48-55.13,58.46-50.24
		S10735.6,127.66,10722.52,148.31z"/>
	<g transform="matrix(1, 0, 0, 1, 10611.14, 65.81)">
		
			<linearGradient id="Path_2160-2_1_" gradientUnits="userSpaceOnUse" x1="21.0715" y1="106.4062" x2="21.0715" y2="105.6718" gradientTransform="matrix(9.3906 0 0 -21.8915 -101.7925 2348.8997)">
			<stop  offset="0" style="stop-color:#D48BE4"/>
			<stop  offset="1" style="stop-color:#B775EA"/>
		</linearGradient>
		<path id="Path_2160-2" fill="url(#Path_2160-2_1_)" d="M92.96,35.52c-1.38,0.78,3.53-5.18,3.17-6.14
			c-0.35-0.96-3.08-0.83-1.61-3.47c1.47-2.64,4.3-6.29,4.86-6.39c0.56-0.11-3.08,4.42-2.64,5.97c0.44,1.55,2.55,0.53,2.64,1.95
			C99.48,28.84,94.34,34.74,92.96,35.52z"/>
	</g>
	<g transform="matrix(1, 0, 0, 1, 10611.14, 65.81)">
		
			<linearGradient id="Path_2159-2_1_" gradientUnits="userSpaceOnUse" x1="21.5179" y1="106.1002" x2="21.5179" y2="105.3659" gradientTransform="matrix(9.3896 0 0 -21.8915 -116.4918 2323.6887)">
			<stop  offset="0" style="stop-color:#D48BE4"/>
			<stop  offset="1" style="stop-color:#B775EA"/>
		</linearGradient>
		<path id="Path_2159-2" fill="url(#Path_2159-2_1_)" d="M82.44,17c-1.38,0.78,3.53-5.18,3.17-6.14S82.53,10.03,84,7.39
			c1.47-2.64,4.3-6.29,4.86-6.39c0.56-0.11-3.07,4.42-2.64,5.97c0.44,1.55,2.55,0.53,2.64,1.95S83.81,16.23,82.44,17z"/>
	</g>
	<g id="Group_2401" transform="translate(1216.704 5430.091) rotate(-30)">
		<g transform="matrix(0.87, 0.5, -0.5, 0.87, 10817.97, 51.61)">
			
				<linearGradient id="Path_2153-2_1_" gradientUnits="userSpaceOnUse" x1="1.9983" y1="93.6386" x2="2.0868" y2="92.8408" gradientTransform="matrix(27.4074 -15.7941 -6.4094 -11.2267 611.792 1176.5276)">
				<stop  offset="0" style="stop-color:#AF6FEB"/>
				<stop  offset="1" style="stop-color:#D98FE3"/>
			</linearGradient>
			<path id="Path_2153-2" fill="url(#Path_2153-2_1_)" d="M57.37,100.22c3.63,4.21,9.65,5.21,14.39,2.4
				c4.74-2.81,6.9-8.65,5.16-13.98L57.37,100.22z"/>
		</g>
		<g transform="matrix(0.87, 0.5, -0.5, 0.87, 10817.97, 51.61)">
			
				<linearGradient id="Exclusion_1-2_1_" gradientUnits="userSpaceOnUse" x1="1.1986" y1="116.8669" x2="1.6607" y2="115.8768" gradientTransform="matrix(89.5225 -51.4562 -50.0235 -87.0522 5743.1099 10278.9922)">
				<stop  offset="0" style="stop-color:#FFDAB8"/>
				<stop  offset="1" style="stop-color:#F67855"/>
			</linearGradient>
			<path id="Exclusion_1-2" fill="url(#Exclusion_1-2_1_)" d="M90.12,80.83l-46.15,27.32c-4.88,2.89-11.13,1.17-13.94-3.84
				c-0.51-0.9-0.88-1.88-1.11-2.9l-6-27.06c-3.45-11.23,0.06-23.48,8.87-31.02c-3.44-1.73-4.86-6-3.17-9.53
				c1.69-3.53,5.85-4.99,9.3-3.25c2.66,1.34,4.2,4.27,3.83,7.29c9.9-3.07,20.65-0.35,28.03,7.08l21.82,18.85
				c4.31,3.72,4.87,10.32,1.23,14.75C92.06,79.43,91.15,80.22,90.12,80.83z M33.11,33.84c-1.66,0.98-2.23,3.16-1.28,4.87
				c0.96,1.7,3.08,2.29,4.75,1.31c1.66-0.98,2.23-3.16,1.28-4.87c0,0,0,0,0-0.01C36.89,33.45,34.77,32.86,33.11,33.84z"/>
		</g>
		
			<ellipse id="Ellipse_418" transform="matrix(-0.9978 -0.067 0.067 -0.9978 21623.8262 1017.0551)" fill="#FF5B69" cx="10828.97" cy="145.96" rx="3.21" ry="3.78"/>
		<path id="Path_2162" fill="#FF5B69" d="M10839.57,136.38c2.67-0.22,4.19-2.05,4.39-1.05s-1.54,2.38-4.21,2.6
			c-2.68,0.22-5.1-1.54-4.78-2.53S10836.9,136.6,10839.57,136.38z"/>
		<path id="Path_2163" fill="#FF5B69" d="M10818.67,136.6c2.68-0.22,4.19-2.05,4.39-1.05c0.21,1-1.54,2.38-4.21,2.6
			c-2.68,0.22-5.1-1.54-4.78-2.53C10814.38,134.64,10816,136.82,10818.67,136.6z"/>
	</g>
	<g transform="matrix(1, 0, 0, 1, 10611.14, 65.81)">
		
			<linearGradient id="Path_2158-2_1_" gradientUnits="userSpaceOnUse" x1="10.9471" y1="114.34" x2="10.9471" y2="113.6057" gradientTransform="matrix(20.6123 0 0 -48.0587 -157.0532 5512.9819)">
			<stop  offset="0" style="stop-color:#D48BE4"/>
			<stop  offset="1" style="stop-color:#B775EA"/>
		</linearGradient>
		<path id="Path_2158-2" fill="url(#Path_2158-2_1_)" d="M61.75,53.08c-3.03,1.71,7.74-11.38,6.96-13.48
			c-0.78-2.1-6.76-1.83-3.53-7.62c3.23-5.79,9.45-13.8,10.67-14.04c1.22-0.23-6.75,9.69-5.79,13.11c0.96,3.41,5.59,1.17,5.79,4.27
			C76.05,38.43,64.77,51.38,61.75,53.08z"/>
	</g>
</g>
</svg>
